# xmcd
#
# Track frame offsets:
#	150
#	17996
#	34675
#	48906
#	67832
#	80074
#	101616
#	129451
#	142713
#	162172
#	192059
#	209644
#	216989
#	254897
#
# Disc length: 3842 seconds
#
# Revision: 1
# Processed by: cddbd v1.5.2PL0 Copyright (c) Steve Scherf et al.
# Submitted via: audiograbber 1.83.01
#
DISCID=c90f000e
DTITLE=Sam Bush - Circles Around Me
DYEAR=2009
DGENRE=Bluegrass
TTITLE0=Circles Around Me
TTITLE1=Diamond Joe
TTITLE2=You Left Me Alone
TTITLE3=The Old North Woods
TTITLE4=Roll On Buddy, Roll On
TTITLE5=The Ballad Of Stringbean And Estelle
TTITLE6=Blue Mountain
TTITLE7=Out On The Ocean
TTITLE8=Gold Heard Locket
TTITLE9=Junior Heywood
TTITLE10=Midnight On The Stormy Deep
TTITLE11=Apple Blossom
TTITLE12=Souvenir Bottles
TTITLE13=Whisper My Name
EXTD=
EXTT0=
EXTT1=
EXTT2=
EXTT3=
EXTT4=
EXTT5=
EXTT6=
EXTT7=
EXTT8=
EXTT9=
EXTT10=
EXTT11=
EXTT12=
EXTT13=
PLAYORDER=
